<?xml version="1.0" encoding="UTF-8"?>
<svg version="1.1" xmlns="http://www.w3.org/2000/svg" width="500" height="500">
<path d="M0 0 C165 0 330 0 500 0 C500 165 500 330 500 500 C335 500 170 500 0 500 C0 335 0 170 0 0 Z " fill="#FEFEFE" transform="translate(0,0)"/>
<path d="M0 0 C3.96 0 7.92 0 12 0 C14.56758585 6.94022097 17.13097447 13.88197175 19.69042969 20.82519531 C20.56231393 23.18858028 21.43535792 25.55153773 22.30957031 27.9140625 C23.56357731 31.30357801 24.81344992 34.69459274 26.0625 38.0859375 C26.45622803 39.14743011 26.84995605 40.20892273 27.25561523 41.30258179 C27.79617554 42.77388046 27.79617554 42.77388046 28.34765625 44.27490234 C28.66742432 45.14094086 28.98719238 46.00697937 29.31665039 46.89926147 C30 49 30 49 30 51 C26.7 51 23.4 51 20 51 C18.02 45.555 18.02 45.555 16 40 C9.4 40 2.8 40 -4 40 C-5.32 43.63 -6.64 47.26 -8 51 C-11.3 51 -14.6 51 -18 51 C-16.03277819 44.25298222 -13.86333253 37.64489016 -11.42578125 31.0546875 C-11.09708542 30.15879913 -10.76838959 29.26291077 -10.42973328 28.33987427 C-9.39341188 25.51722733 -8.35303287 22.69609677 -7.3125 19.875 C-6.60324512 17.94541191 -5.89425832 16.01572525 -5.18554688 14.0859375 C-3.46012419 9.38948141 -1.73106433 4.69437941 0 0 Z " fill="#8E56FF" transform="translate(309,224)"/>
<path d="M0 0 C1.51400391 0.01740234 1.51400391 0.01740234 3.05859375 0.03515625 C4.07050781 0.04417969 5.08242187 0.05320313 6.125 0.0625 C7.29869141 0.07990234 7.29869141 0.07990234 8.49609375 0.09765625 C9.046875 1.56640625 9.59765625 3.03515625 10.1484375 4.50390625 C10.6889978 5.94503784 10.6889978 5.94503784 11.24047852 7.4152832 C12.04238891 9.5542032 12.84364821 11.69336741 13.64428711 13.83276367 C15.78031268 19.5375912 17.92722838 25.23785114 20.09765625 30.9296875 C20.7165271 32.55970703 20.7165271 32.55970703 21.34790039 34.22265625 C22.14521555 36.32181873 22.94638949 38.41952025 23.75170898 40.515625 C24.11208252 41.46695313 24.47245605 42.41828125 24.84375 43.3984375 C25.16351807 44.23544189 25.48328613 45.07244629 25.81274414 45.93481445 C26.49609375 48.09765625 26.49609375 48.09765625 26.49609375 51.09765625 C23.19609375 51.09765625 19.89609375 51.09765625 16.49609375 51.09765625 C14.51609375 45.65265625 14.51609375 45.65265625 12.49609375 40.09765625 C5.89609375 39.76765625 -0.70390625 39.43765625 -7.50390625 39.09765625 C-7.97828125 40.70640625 -8.45265625 42.31515625 -8.94140625 43.97265625 C-10.37890625 48.84765625 -10.37890625 48.84765625 -11.50390625 51.09765625 C-14.80390625 51.09765625 -18.10390625 51.09765625 -21.50390625 51.09765625 C-17.56778326 39.67886942 -13.52021241 28.30225758 -9.37637329 16.95733643 C-8.87735642 15.59061736 -8.37929164 14.2235503 -7.88217163 12.85614014 C-7.1782523 10.9212485 -6.47056693 8.98777803 -5.76171875 7.0546875 C-5.35066895 5.9303833 -4.93961914 4.8060791 -4.51611328 3.64770508 C-3.11645283 0.12154652 -3.11645283 0.12154652 0 0 Z " fill="#8E56FF" transform="translate(127.50390625,223.90234375)"/>
<path d="M0 0 C4.29817274 4.52439236 5.12750014 7.8624711 5.09765625 13.98046875 C5.09443359 15.14384766 5.09121094 16.30722656 5.08789062 17.50585938 C5.07532227 19.32827148 5.07532227 19.32827148 5.0625 21.1875 C5.05798828 22.41404297 5.05347656 23.64058594 5.04882812 24.90429688 C5.03703065 27.93624668 5.02056921 30.96809906 5 34 C2.03 34 -0.94 34 -4 34 C-4.33 32.68 -4.66 31.36 -5 30 C-5.763125 30.639375 -6.52625 31.27875 -7.3125 31.9375 C-11.08805603 34.83501974 -14.13417381 35.34628373 -18.8671875 35.28515625 C-23.20157449 34.7056503 -26.75504248 32.62385764 -29.4375 29.125 C-30.6336346 24.60626928 -30.49049416 21.91091772 -28.25 17.75 C-25.98213391 14.97816367 -25.27428808 14.13749618 -22 13 C-19.07820702 12.76458782 -16.17872875 12.81185991 -13.25 12.875 C-12.06083984 12.88853516 -12.06083984 12.88853516 -10.84765625 12.90234375 C-8.89830719 12.92582988 -6.94911425 12.96169863 -5 13 C-5.96776098 9.20452079 -5.96776098 9.20452079 -8 6 C-9.51928038 5.92820036 -11.04167482 5.91607993 -12.5625 5.9375 C-13.38878906 5.94652344 -14.21507812 5.95554688 -15.06640625 5.96484375 C-15.70449219 5.97644531 -16.34257812 5.98804688 -17 6 C-17.66 7.32 -18.32 8.64 -19 10 C-22.3 10 -25.6 10 -29 10 C-28.56489218 5.068778 -26.45118597 2.45118597 -23 -1 C-15.727476 -4.72082623 -6.9299956 -4.01939745 0 0 Z " fill="#9059FF" transform="translate(263,241)"/>
<path d="M0 0 C2.97 0 5.94 0 9 0 C9.01981934 0.64026123 9.03963867 1.28052246 9.06005859 1.94018555 C9.15563601 4.8563528 9.26518214 7.77183572 9.375 10.6875 C9.4059375 11.69490234 9.436875 12.70230469 9.46875 13.74023438 C9.50742188 14.71669922 9.54609375 15.69316406 9.5859375 16.69921875 C9.6173584 17.59471436 9.6487793 18.49020996 9.68115234 19.4128418 C10.03092377 22.25091824 10.73789244 24.43793847 12 27 C14.80915474 28.40457737 16.88810534 28.24895157 20 28 C23.1359157 26.22015595 23.84102736 25.47691793 25 22 C25.14777936 20.30132812 25.24747066 18.59822511 25.31640625 16.89453125 C25.35830078 15.91162109 25.40019531 14.92871094 25.44335938 13.91601562 C25.48267578 12.89185547 25.52199219 11.86769531 25.5625 10.8125 C25.60568359 9.77673828 25.64886719 8.74097656 25.69335938 7.67382812 C25.79944263 5.11604298 25.90022586 2.55803902 26 0 C29.3 0 32.6 0 36 0 C36 11.88 36 23.76 36 36 C33.03 36 30.06 36 27 36 C26.505 33.525 26.505 33.525 26 31 C25.21625 31.804375 24.4325 32.60875 23.625 33.4375 C20.25221622 36.7299794 18.76733558 37.16760416 14.1875 37.25 C9.93115791 37.18263343 7.25444824 36.96729105 4 34 C-1.05177912 27.43827952 -0.46897881 21.09312658 -0.25 13.0625 C-0.23195312 11.80630859 -0.21390625 10.55011719 -0.1953125 9.25585938 C-0.14837594 6.16978084 -0.08272414 3.08529219 0 0 Z " fill="#9058FF" transform="translate(160,239)"/>
<path d="M0 0 C3.3 0 6.6 0 10 0 C10 17.16 10 34.32 10 52 C6.7 52 3.4 52 0 52 C0 34.84 0 17.68 0 0 Z " fill="#935EFF" transform="translate(345,223)"/>
<path d="M0 0 C0 3.3 0 6.6 0 10 C-3.80859375 10.63476562 -3.80859375 10.63476562 -7.6171875 11.26953125 C-10.34412478 11.83051301 -10.34412478 11.83051301 -12 15 C-12.3663859 17.41713479 -12.3663859 17.41713479 -12.4140625 20.10546875 C-12.47207031 21.57983398 -12.47207031 21.57983398 -12.53125 23.08398438 C-12.5621875 24.10814453 -12.593125 25.13230469 -12.625 26.1875 C-12.68300781 27.74114258 -12.68300781 27.74114258 -12.7421875 29.32617188 C-12.83647869 31.88382027 -12.91932918 34.44188578 -13 37 C-16.3 37 -19.6 37 -23 37 C-23 25.12 -23 13.24 -23 1 C-20.03 1 -17.06 1 -14 1 C-13.67 2.65 -13.34 4.3 -13 6 C-12.56429687 5.566875 -12.12859375 5.13375 -11.6796875 4.6875 C-7.80108889 1.06075844 -5.57946217 -0.81650666 0 0 Z " fill="#9059FF" transform="translate(228,238)"/>
<path d="M0 0 C0.33 0 0.66 0 1 0 C1.19916016 1.35544922 1.19916016 1.35544922 1.40234375 2.73828125 C1.57894531 3.91777344 1.75554687 5.09726562 1.9375 6.3125 C2.11152344 7.48425781 2.28554688 8.65601563 2.46484375 9.86328125 C2.92093031 13.01641403 2.92093031 13.01641403 4 16 C10.51007615 18.21096926 17.1723425 18.56758169 24 19 C24 19.33 24 19.66 24 20 C22.97519531 20.03738281 21.95039063 20.07476562 20.89453125 20.11328125 C19.53381938 20.17897079 18.17314389 20.24541709 16.8125 20.3125 C15.80219727 20.34633789 15.80219727 20.34633789 14.77148438 20.38085938 C10.39076078 20.61592259 7.52115108 21.36736368 4 24 C1.40576447 27.50221796 1.42161802 31.7838198 1 36 C0.67 36 0.34 36 0 36 C-0.09796875 35.32453125 -0.1959375 34.6490625 -0.296875 33.953125 C-1.36108138 27.02142581 -1.36108138 27.02142581 -6 22 C-8.83269666 20.58365167 -11.47466438 20.6536995 -14.625 20.4375 C-15.81351562 20.35371094 -17.00203125 20.26992188 -18.2265625 20.18359375 C-19.59941406 20.09271484 -19.59941406 20.09271484 -21 20 C-21 19.67 -21 19.34 -21 19 C-20.04738281 18.91363281 -19.09476562 18.82726562 -18.11328125 18.73828125 C-16.85902344 18.59777344 -15.60476563 18.45726562 -14.3125 18.3125 C-13.07113281 18.18488281 -11.82976562 18.05726563 -10.55078125 17.92578125 C-6.25553156 16.80589767 -4.66209658 15.52336313 -2 12 C-0.98609683 8.90933671 -0.98609683 8.90933671 -0.6875 5.6875 C-0.54699219 4.61886719 -0.40648437 3.55023438 -0.26171875 2.44921875 C-0.17535156 1.64097656 -0.08898437 0.83273437 0 0 Z " fill="#FFE168" transform="translate(365,266)"/>
<path d="M0 0 C0.33 0 0.66 0 1 0 C1.18175781 0.84304687 1.36351563 1.68609375 1.55078125 2.5546875 C1.80214844 3.65039062 2.05351563 4.74609375 2.3125 5.875 C2.67794922 7.51082031 2.67794922 7.51082031 3.05078125 9.1796875 C3.77902058 12.29442353 3.77902058 12.29442353 7 14 C8.92447891 14.45138911 8.92447891 14.45138911 11.01171875 14.6328125 C11.76904297 14.71660156 12.52636719 14.80039063 13.30664062 14.88671875 C14.48516602 15.00466797 14.48516602 15.00466797 15.6875 15.125 C16.88342773 15.25455078 16.88342773 15.25455078 18.10351562 15.38671875 C20.06823326 15.59848472 22.03402796 15.80021473 24 16 C24 16.33 24 16.66 24 17 C22.97519531 17.03738281 21.95039063 17.07476562 20.89453125 17.11328125 C19.53381938 17.17897079 18.17314389 17.24541709 16.8125 17.3125 C15.80219727 17.34633789 15.80219727 17.34633789 14.77148438 17.38085938 C10.39829445 17.61551835 7.49289228 18.32973282 4 21 C1.89501097 24.78898025 1.50209286 28.73221073 1 33 C0.67 33 0.34 33 0 33 C-0.09796875 32.32453125 -0.1959375 31.6490625 -0.296875 30.953125 C-0.93809404 27.12792177 -1.49130157 23.84783071 -3.5 20.5 C-7.38168665 18.17098801 -11.56186649 17.64369875 -16 17 C-12.63658479 15.18254918 -9.53010301 14.38415209 -5.8046875 13.66015625 C-3.61330354 13.0600431 -3.61330354 13.0600431 -2 10 C-1.56261304 8.28555111 -1.19151312 6.55332216 -0.875 4.8125 C-0.70742187 3.91144531 -0.53984375 3.01039063 -0.3671875 2.08203125 C-0.24601562 1.39496094 -0.12484375 0.70789063 0 0 Z " fill="#FFE064" transform="translate(110,192)"/>
<path d="M0 0 C2.16337361 3.24506041 3.30871672 6.26961121 4.625 9.9375 C5.07101563 11.16339844 5.51703125 12.38929688 5.9765625 13.65234375 C7 17 7 17 7 21 C2.38 21 -2.24 21 -7 21 C-6.19143144 16.14858865 -5.16053594 12.25880098 -3.5 7.6875 C-2.83484375 5.83705078 -2.83484375 5.83705078 -2.15625 3.94921875 C-1 1 -1 1 0 0 Z " fill="#F6F2FF" transform="translate(130,235)"/>
<path d="M0 0 C0.66 0 1.32 0 2 0 C3.00577013 2.76886123 4.00480147 5.53984104 5 8.3125 C5.28617187 9.09818359 5.57234375 9.88386719 5.8671875 10.69335938 C6.13789063 11.45068359 6.40859375 12.20800781 6.6875 12.98828125 C7.06455078 14.03302612 7.06455078 14.03302612 7.44921875 15.09887695 C8 17 8 17 8 20 C3.38 20 -1.24 20 -6 20 C-4.63125844 13.04223041 -2.5466871 6.61396893 0 0 Z " fill="#F7F3FF" transform="translate(314,236)"/>
<path d="M0 0 C1.49080078 0.02707031 1.49080078 0.02707031 3.01171875 0.0546875 C3.77097656 0.07789063 4.53023438 0.10109375 5.3125 0.125 C4.80851021 3.07554218 4.44627824 4.9270082 2.75 7.4375 C-0.89092592 9.95814102 -3.30971754 9.54865637 -7.6875 9.125 C-8.3475 8.465 -9.0075 7.805 -9.6875 7.125 C-9.5 4.625 -9.5 4.625 -8.6875 2.125 C-5.26655758 -0.15562828 -4.00562778 -0.09425007 0 0 Z " fill="#F6F2FF" transform="translate(252.6875,258.875)"/>
<path d="M0 0 C0.268125 0.598125 0.53625 1.19625 0.8125 1.8125 C1.98493467 3.97224808 3.19369282 5.35790256 5 7 C3.35 8.32 1.7 9.64 0 11 C-0.66 10.01 -1.32 9.02 -2 8 C-2.99 7.34 -3.98 6.68 -5 6 C-4.360625 5.7525 -3.72125 5.505 -3.0625 5.25 C-0.81258459 4.18437567 -0.81258459 4.18437567 -0.25 1.875 C-0.1675 1.25625 -0.085 0.6375 0 0 Z " fill="#FFE066" transform="translate(127,184)"/>
<path d="M0 0 C1.37562854 1.28965176 2.70766393 2.62689293 4 4 C4 4.66 4 5.32 4 6 C3.01 6.495 3.01 6.495 2 7 C0.86649466 9.01669827 0.86649466 9.01669827 0 11 C-2.875 6.25 -2.875 6.25 -4 4 C-2.68 2.68 -1.36 1.36 0 0 Z " fill="#FFE168" transform="translate(382,262)"/>
<path d="M0 0 C-0.33 0.99 -0.66 1.98 -1 3 C-3.97 2.67 -6.94 2.34 -10 2 C-6.00889681 0.0044484 -4.30013434 -0.19546065 0 0 Z " fill="#FFE479" transform="translate(104,207)"/>
<path d="M0 0 C0.33 0 0.66 0 1 0 C1.33 3.63 1.66 7.26 2 11 C1.01 11.33 0.02 11.66 -1 12 C-0.67 8.04 -0.34 4.08 0 0 Z " fill="#FFE57D" transform="translate(365,266)"/>
</svg>
